# xmcd
#
# Track frame offsets:
#	150
#	18611
#	34842
#	52682
#	68911
#	82517
#	99114
#	119810
#	143008
#	157631
#	175292
#	191723
#	209022
#	223821
#	239492
#	256999
#	273183
#	290988
#	310016
#	326671
#	341799
#	353855
#
# Disc length: 4902 seconds
#
# Revision: 4
# Processed by: cddbd v1.5.2PL0 Copyright (c) Steve Scherf et al.
# Submitted via: audiograbber 1.83.01
#
DISCID=4a132416
DTITLE=diverse Interpreten - Billboard Country Charts January 2009
DYEAR=1900
DGENRE=
TTITLE0=No. (01) Country Boy
TTITLE1=No. (03) She Wouldn't Be Gone
TTITLE2=No. (04) Don't
TTITLE3=No. (06) God Love Her
TTITLE4=No. (07) Down The Road (With Mac McAnally)
TTITLE5=No. (09) Cowgirls Don't Cry
TTITLE6=No. (10) Already Gone
TTITLE7=No. (11) Here 
TTITLE8=No. (12) River Of Love
TTITLE9=No. (13)White Horse
TTITLE10=No. (14) It Won't Be Like This For Long
TTITLE11=No. (15) Let Me
TTITLE12=No. (16) Last Call
TTITLE13=No. (20) More Like Her
TTITLE14=No. (21) Ride
TTITLE15=No. (22) Everything Is Fine
TTITLE16=No. (23) I Will
TTITLE17=No. (24) Nothin' to Die For
TTITLE18=No. (26) Always The Love Songs
TTITLE19=No. (27) She's So California
TTITLE20=No. (28) How Bout You Dont
TTITLE21=No. (29) Marry For Money
EXTD=
EXTT0=Alan Jackson
EXTT1=Blake Skelton
EXTT2=
EXTT3=
EXTT4=
EXTT5=
EXTT6=
EXTT7=
EXTT8=
EXTT9=
EXTT10=
EXTT11=
EXTT12=
EXTT13=
EXTT14=
EXTT15=
EXTT16=
EXTT17=
EXTT18=
EXTT19=
EXTT20=
EXTT21=
PLAYORDER=
